<svg xmlns="http://www.w3.org/2000/svg" viewBox="0 0 512 512" role="img" aria-label="Fieldnote">
  <rect width="512" height="512" fill="#202820"/>
  <!-- notebook body -->
  <path fill="#d6ef79" d="M168 118h176c22 0 40 18 40 40v56c-28 4-48 26-48 54v118c0 22-18 40-40 40H168c-22 0-40-18-40-40V158c0-22 18-40 40-40z"/>
  <!-- note lines -->
  <rect x="196" y="268" width="112" height="20" rx="10" fill="#202820"/>
  <rect x="196" y="312" width="112" height="20" rx="10" fill="#202820"/>
  <!-- leaf -->
  <path fill="#d6ef79" d="M336 86c58 24 92 78 86 138-48-6-98-44-118-98 24-20 28-30 32-40z"/>
  <path fill="#202820" d="M348 118c22 30 40 56 54 74-10-38-28-62-54-74z" opacity=".28"/>
</svg>
